<svg display="none"
  xmlns="http://www.w3.org/2000/svg">
  <symbol id="search__icon">
    <path d="M15.321,14.610 C14.899,15.064 13.327,16.025 11.590,14.318 L9.532,11.968 C8.752,12.313 7.891,12.507 6.983,12.507 C3.515,12.507 0.705,9.705 0.705,6.250 C0.705,2.794 3.512,-0.004 6.980,-0.004 C10.445,-0.004 13.259,2.797 13.259,6.253 C13.259,7.182 13.056,8.065 12.691,8.857 L15.027,10.893 C16.730,12.640 15.773,14.159 15.321,14.610 ZM6.980,1.305 C4.238,1.305 2.015,3.521 2.015,6.253 C2.015,8.985 4.235,11.201 6.980,11.201 C9.722,11.201 11.946,8.985 11.946,6.253 C11.946,3.521 9.722,1.305 6.980,1.305 ZM14.179,11.866 L12.017,9.986 C11.634,10.498 11.175,10.953 10.654,11.326 L12.526,13.513 C12.819,13.837 13.652,14.380 14.407,13.739 C14.616,13.563 15.040,12.671 14.179,11.866 ZM6.494,10.085 C5.683,9.923 4.937,9.535 4.351,8.954 C3.768,8.373 3.378,7.627 3.215,6.818 C3.150,6.464 3.343,6.142 3.702,6.076 C4.058,6.011 4.382,6.207 4.448,6.560 C4.544,7.142 4.803,7.627 5.227,8.049 C5.648,8.438 6.169,8.727 6.721,8.826 C7.046,8.892 7.273,9.216 7.208,9.569 C7.142,9.893 6.849,10.125 6.494,10.085 Z" />
  </symbol>

  <symbol id="like__icon">
    <path d="M9.913,16.244 C9.818,16.244 9.722,16.226 9.633,16.188 C9.280,16.039 0.983,12.439 0.983,5.429 C1.074,2.779 3.190,0.721 5.801,0.721 C7.544,0.721 9.067,1.639 9.913,3.031 C10.760,1.639 12.282,0.721 14.025,0.721 C16.634,0.721 18.750,2.779 18.842,5.405 C18.842,12.439 10.545,16.039 10.193,16.188 C10.103,16.226 10.008,16.244 9.913,16.244 ZM5.801,2.106 C3.954,2.106 2.458,3.576 2.393,5.452 C2.393,10.860 8.518,14.115 9.913,14.787 C11.308,14.115 17.433,10.857 17.433,5.429 C17.368,3.576 15.870,2.106 14.025,2.106 C12.180,2.106 10.683,3.576 10.617,5.452 C10.605,5.825 10.293,6.121 9.913,6.121 L9.913,6.121 C9.533,6.121 9.221,5.825 9.208,5.452 C9.144,3.576 7.647,2.106 5.801,2.106 Z" />
  </symbol>

  <symbol id="cart__icon">
    <path d="M18.936,3.932 L16.813,11.888 C16.744,12.147 16.508,12.328 16.240,12.328 L5.885,12.328 C5.876,12.326 5.868,12.326 5.862,12.328 C4.533,12.329 3.657,12.821 3.182,13.837 C3.082,14.051 2.868,14.178 2.645,14.178 C2.561,14.178 2.476,14.161 2.395,14.122 C2.099,13.984 1.970,13.632 2.109,13.335 C2.688,12.096 3.736,11.362 5.163,11.184 L4.108,5.793 C4.045,5.473 4.254,5.161 4.575,5.098 C4.896,5.032 5.207,5.246 5.271,5.566 L6.362,11.144 L15.785,11.144 L17.592,4.373 L4.314,4.373 C4.306,4.373 4.298,4.373 4.290,4.373 C2.162,4.373 0.321,2.789 0.007,0.680 C-0.042,0.355 0.181,0.054 0.505,0.006 C0.820,-0.049 1.129,0.181 1.178,0.505 C1.407,2.037 2.745,3.187 4.293,3.187 C4.299,3.187 4.305,3.187 4.311,3.187 L18.363,3.187 C18.547,3.187 18.721,3.273 18.833,3.419 C18.945,3.565 18.983,3.755 18.936,3.932 ZM5.527,12.831 C5.529,12.831 5.530,12.831 5.533,12.831 C6.083,12.831 6.602,13.045 6.994,13.433 C7.386,13.827 7.602,14.346 7.602,14.900 C7.604,15.740 7.103,16.493 6.325,16.817 C6.067,16.925 5.795,16.978 5.526,16.978 C4.990,16.978 4.463,16.768 4.065,16.371 C3.468,15.777 3.291,14.891 3.612,14.111 C3.934,13.334 4.686,12.831 5.527,12.831 ZM4.901,15.533 C5.157,15.787 5.538,15.862 5.870,15.724 C6.203,15.585 6.418,15.261 6.417,14.901 C6.417,14.664 6.324,14.441 6.157,14.272 C5.991,14.107 5.768,14.015 5.533,14.015 C5.530,14.015 5.529,14.015 5.529,14.015 C5.167,14.015 4.845,14.230 4.707,14.564 C4.570,14.897 4.645,15.279 4.901,15.533 ZM13.918,12.831 C14.464,12.791 14.998,13.049 15.386,13.434 C15.778,13.827 15.993,14.346 15.993,14.900 C15.996,15.739 15.496,16.493 14.719,16.817 C14.459,16.925 14.187,16.976 13.918,16.978 C13.381,16.978 12.854,16.768 12.457,16.371 C11.860,15.776 11.683,14.891 12.005,14.111 C12.326,13.334 13.077,12.831 13.918,12.831 ZM13.293,15.533 C13.549,15.788 13.931,15.862 14.263,15.724 C14.595,15.585 14.810,15.261 14.809,14.901 C14.809,14.664 14.717,14.441 14.549,14.272 C14.384,14.109 14.157,14.015 13.924,14.015 C13.923,14.015 13.923,14.015 13.923,14.015 C13.592,14.047 13.238,14.230 13.100,14.563 C12.961,14.897 13.037,15.279 13.293,15.533 Z" />

  </symbol>

  <symbol id="dots__icon">
    <path d="M17.883,12.750 C16.696,12.750 15.737,11.790 15.737,10.603 C15.737,9.417 16.696,8.458 17.883,8.458 C19.070,8.458 20.029,9.417 20.029,10.603 C20.029,11.790 19.070,12.750 17.883,12.750 ZM17.883,4.881 C16.696,4.881 15.737,3.921 15.737,2.735 C15.737,1.548 16.696,0.589 17.883,0.589 C19.070,0.589 20.029,1.548 20.029,2.735 C20.029,3.921 19.070,4.881 17.883,4.881 ZM10.014,20.618 C8.828,20.618 7.868,19.659 7.868,18.472 C7.868,17.285 8.828,16.326 10.014,16.326 C11.201,16.326 12.160,17.285 12.160,18.472 C12.160,19.659 11.201,20.618 10.014,20.618 ZM10.014,12.750 C8.828,12.750 7.868,11.790 7.868,10.603 C7.868,9.417 8.828,8.458 10.014,8.458 C11.201,8.458 12.160,9.417 12.160,10.603 C12.160,11.790 11.201,12.750 10.014,12.750 ZM10.014,4.881 C8.828,4.881 7.868,3.921 7.868,2.735 C7.868,1.548 8.828,0.589 10.014,0.589 C11.201,0.589 12.160,1.548 12.160,2.735 C12.160,3.921 11.201,4.881 10.014,4.881 ZM2.146,20.618 C0.959,20.618 -0.000,19.659 -0.000,18.472 C-0.000,17.285 0.959,16.326 2.146,16.326 C3.333,16.326 4.292,17.285 4.292,18.472 C4.292,19.659 3.333,20.618 2.146,20.618 ZM2.146,12.750 C0.959,12.750 -0.000,11.790 -0.000,10.603 C-0.000,9.417 0.959,8.458 2.146,8.458 C3.333,8.458 4.292,9.417 4.292,10.603 C4.292,11.790 3.333,12.750 2.146,12.750 ZM2.146,4.881 C0.959,4.881 -0.000,3.921 -0.000,2.735 C-0.000,1.548 0.959,0.589 2.146,0.589 C3.333,0.589 4.292,1.548 4.292,2.735 C4.292,3.921 3.333,4.881 2.146,4.881 ZM17.883,16.326 C19.070,16.326 20.029,17.285 20.029,18.472 C20.029,19.659 19.070,20.618 17.883,20.618 C16.696,20.618 15.737,19.659 15.737,18.472 C15.737,17.285 16.696,16.326 17.883,16.326 Z" />

  </symbol>

  <symbol id="arrow__white">
    <path d="M0.296,5.472 L0.288,5.472 L17.244,5.472 L17.144,8.329 C17.089,8.383 17.060,8.456 17.060,8.534 C17.060,8.611 17.089,8.685 17.144,8.739 L17.316,8.911 C17.370,8.967 17.442,8.997 17.520,8.997 C17.597,8.997 17.669,8.967 17.723,8.913 L21.916,4.702 C21.970,4.647 22.000,4.574 22.000,4.496 C22.000,4.419 21.970,4.346 21.916,4.293 L17.723,0.080 C17.669,0.027 17.597,-0.004 17.520,-0.004 C17.442,-0.004 17.370,0.027 17.316,0.080 L17.144,0.253 C17.089,0.309 17.060,0.380 17.060,0.457 C17.060,0.534 17.089,0.603 17.144,0.658 L17.257,3.523 L0.292,3.523 C0.133,3.523 -0.000,3.658 -0.000,3.818 L-0.000,5.188 C-0.000,5.347 0.137,5.472 0.296,5.472 Z" />
  </symbol>

  <symbol id="play__video">
    <path d="M20.684,14.740 L4.640,24.536 C4.139,24.842 3.559,24.997 2.977,24.997 C2.498,24.997 2.017,24.891 1.578,24.680 C0.606,24.210 -0.001,23.293 -0.001,22.295 L-0.001,2.700 C-0.001,1.701 0.606,0.783 1.578,0.314 C2.549,-0.155 3.727,-0.100 4.640,0.457 L20.684,10.255 C21.506,10.757 21.999,11.598 21.999,12.496 C21.999,13.396 21.506,14.237 20.684,14.740 Z"/>
  </symbol>

  <symbol id="view__arrow">
    <path fill="rgb(38, 38, 38)" d="M1.333,11.687 C1.184,11.687 1.034,11.626 0.922,11.504 C0.819,11.390 0.767,11.245 0.767,11.100 C0.767,10.943 0.826,10.789 0.944,10.673 L5.491,6.198 L0.944,1.724 C0.826,1.609 0.767,1.453 0.767,1.297 C0.767,1.152 0.819,1.007 0.922,0.893 C1.138,0.657 1.496,0.647 1.723,0.870 L6.700,5.768 C6.705,5.772 6.709,5.777 6.714,5.782 C6.762,5.831 6.801,5.889 6.827,5.951 L6.827,5.951 C6.828,5.951 6.828,5.951 6.828,5.951 C6.862,6.029 6.880,6.112 6.880,6.195 C6.880,6.196 6.880,6.197 6.880,6.198 C6.880,6.284 6.862,6.369 6.827,6.447 L6.827,6.447 C6.827,6.448 6.826,6.448 6.826,6.448 C6.826,6.449 6.826,6.449 6.826,6.449 C6.826,6.449 6.826,6.449 6.826,6.450 C6.799,6.509 6.762,6.565 6.715,6.614 C6.710,6.619 6.705,6.623 6.700,6.628 L1.723,11.527 C1.614,11.635 1.473,11.687 1.333,11.687 Z"/>

  </symbol>

  <symbol id="calendar__icon">
    <path d="M148 288h-40c-6.6 0-12-5.4-12-12v-40c0-6.6 5.4-12 12-12h40c6.6 0 12 5.4 12 12v40c0 6.6-5.4 12-12 12zm108-12v-40c0-6.6-5.4-12-12-12h-40c-6.6 0-12 5.4-12 12v40c0 6.6 5.4 12 12 12h40c6.6 0 12-5.4 12-12zm96 0v-40c0-6.6-5.4-12-12-12h-40c-6.6 0-12 5.4-12 12v40c0 6.6 5.4 12 12 12h40c6.6 0 12-5.4 12-12zm-96 96v-40c0-6.6-5.4-12-12-12h-40c-6.6 0-12 5.4-12 12v40c0 6.6 5.4 12 12 12h40c6.6 0 12-5.4 12-12zm-96 0v-40c0-6.6-5.4-12-12-12h-40c-6.6 0-12 5.4-12 12v40c0 6.6 5.4 12 12 12h40c6.6 0 12-5.4 12-12zm192 0v-40c0-6.6-5.4-12-12-12h-40c-6.6 0-12 5.4-12 12v40c0 6.6 5.4 12 12 12h40c6.6 0 12-5.4 12-12zm96-260v352c0 26.5-21.5 48-48 48H48c-26.5 0-48-21.5-48-48V112c0-26.5 21.5-48 48-48h48V12c0-6.6 5.4-12 12-12h40c6.6 0 12 5.4 12 12v52h128V12c0-6.6 5.4-12 12-12h40c6.6 0 12 5.4 12 12v52h48c26.5 0 48 21.5 48 48zm-48 346V160H48v298c0 3.3 2.7 6 6 6h340c3.3 0 6-2.7 6-6z"></path>
  </symbol>


  <symbol id="user__icon">
    <path d="M8.5 9.32018C9.51667 9.32018 10.65 9.47758 11.9 9.7924C13.3 10.1404 14.4333 10.6043 15.3 11.1842C16.3333 11.8801 17 12.1784 17 13.0234V17H0V13.0234C0 12.1784 0.666661 11.8801 1.7 11.1842C2.56667 10.6043 3.69999 10.1404 5.1 9.7924C6.35001 9.47758 7.48333 9.32018 8.5 9.32018ZM8.5 0C9.25 0 9.94166 0.186402 10.575 0.55921C11.2083 0.932019 11.7125 1.44152 12.0875 2.08772C12.4625 2.73392 12.65 3.42982 12.65 4.17544C12.65 4.92106 12.4625 5.60867 12.0875 6.2383C11.7125 6.86794 11.2083 7.36915 10.575 7.74196C9.94166 8.11477 9.25 8.30117 8.5 8.30117C7.75 8.30117 7.05834 8.11477 6.425 7.74196C5.79166 7.36915 5.2875 6.86794 4.9125 6.2383C4.5375 5.60867 4.35 4.92106 4.35 4.17544C4.35 3.42982 4.5375 2.73392 4.9125 2.08772C5.2875 1.44152 5.79166 0.932019 6.425 0.55921C7.05834 0.186402 7.75 0 8.5 0ZM8.5 11.3085C7.55 11.3085 6.54167 11.4493 5.475 11.731C4.55833 11.9795 3.775 12.2778 3.125 12.6257C2.475 12.9737 2 13.7856 2 14.0175V15.0117H15V14.0175C15 13.7856 14.525 12.9737 13.875 12.6257C13.225 12.2778 12.4417 11.9795 11.525 11.731C10.4583 11.4493 9.45 11.3085 8.5 11.3085ZM8.5 1.9883C7.88333 1.9883 7.3625 2.19956 6.9375 2.62208C6.5125 3.04459 6.3 3.56238 6.3 4.17544C6.3 4.7885 6.5125 5.298 6.9375 5.70395C7.3625 6.10989 7.88333 6.31287 8.5 6.31287C9.11667 6.31287 9.6375 6.10989 10.0625 5.70395C10.4875 5.298 10.7 4.7885 10.7 4.17544C10.7 3.56238 10.4875 3.04459 10.0625 2.62208C9.6375 2.19956 9.11667 1.9883 8.5 1.9883Z" />

  </symbol>


</svg>