<svg display="none"
  xmlns="http://www.w3.org/2000/svg">
  <symbol id="search__icon">
    <path d="M15.321,14.610 C14.899,15.064 13.327,16.025 11.590,14.318 L9.532,11.968 C8.752,12.313 7.891,12.507 6.983,12.507 C3.515,12.507 0.705,9.705 0.705,6.250 C0.705,2.794 3.512,-0.004 6.980,-0.004 C10.445,-0.004 13.259,2.797 13.259,6.253 C13.259,7.182 13.056,8.065 12.691,8.857 L15.027,10.893 C16.730,12.640 15.773,14.159 15.321,14.610 ZM6.980,1.305 C4.238,1.305 2.015,3.521 2.015,6.253 C2.015,8.985 4.235,11.201 6.980,11.201 C9.722,11.201 11.946,8.985 11.946,6.253 C11.946,3.521 9.722,1.305 6.980,1.305 ZM14.179,11.866 L12.017,9.986 C11.634,10.498 11.175,10.953 10.654,11.326 L12.526,13.513 C12.819,13.837 13.652,14.380 14.407,13.739 C14.616,13.563 15.040,12.671 14.179,11.866 ZM6.494,10.085 C5.683,9.923 4.937,9.535 4.351,8.954 C3.768,8.373 3.378,7.627 3.215,6.818 C3.150,6.464 3.343,6.142 3.702,6.076 C4.058,6.011 4.382,6.207 4.448,6.560 C4.544,7.142 4.803,7.627 5.227,8.049 C5.648,8.438 6.169,8.727 6.721,8.826 C7.046,8.892 7.273,9.216 7.208,9.569 C7.142,9.893 6.849,10.125 6.494,10.085 Z" />
  </symbol>

  <symbol id="like__icon">
    <path d="M9.913,16.244 C9.818,16.244 9.722,16.226 9.633,16.188 C9.280,16.039 0.983,12.439 0.983,5.429 C1.074,2.779 3.190,0.721 5.801,0.721 C7.544,0.721 9.067,1.639 9.913,3.031 C10.760,1.639 12.282,0.721 14.025,0.721 C16.634,0.721 18.750,2.779 18.842,5.405 C18.842,12.439 10.545,16.039 10.193,16.188 C10.103,16.226 10.008,16.244 9.913,16.244 ZM5.801,2.106 C3.954,2.106 2.458,3.576 2.393,5.452 C2.393,10.860 8.518,14.115 9.913,14.787 C11.308,14.115 17.433,10.857 17.433,5.429 C17.368,3.576 15.870,2.106 14.025,2.106 C12.180,2.106 10.683,3.576 10.617,5.452 C10.605,5.825 10.293,6.121 9.913,6.121 L9.913,6.121 C9.533,6.121 9.221,5.825 9.208,5.452 C9.144,3.576 7.647,2.106 5.801,2.106 Z" />
  </symbol>

  <symbol id="cart__icon">
    <path d="M18.936,3.932 L16.813,11.888 C16.744,12.147 16.508,12.328 16.240,12.328 L5.885,12.328 C5.876,12.326 5.868,12.326 5.862,12.328 C4.533,12.329 3.657,12.821 3.182,13.837 C3.082,14.051 2.868,14.178 2.645,14.178 C2.561,14.178 2.476,14.161 2.395,14.122 C2.099,13.984 1.970,13.632 2.109,13.335 C2.688,12.096 3.736,11.362 5.163,11.184 L4.108,5.793 C4.045,5.473 4.254,5.161 4.575,5.098 C4.896,5.032 5.207,5.246 5.271,5.566 L6.362,11.144 L15.785,11.144 L17.592,4.373 L4.314,4.373 C4.306,4.373 4.298,4.373 4.290,4.373 C2.162,4.373 0.321,2.789 0.007,0.680 C-0.042,0.355 0.181,0.054 0.505,0.006 C0.820,-0.049 1.129,0.181 1.178,0.505 C1.407,2.037 2.745,3.187 4.293,3.187 C4.299,3.187 4.305,3.187 4.311,3.187 L18.363,3.187 C18.547,3.187 18.721,3.273 18.833,3.419 C18.945,3.565 18.983,3.755 18.936,3.932 ZM5.527,12.831 C5.529,12.831 5.530,12.831 5.533,12.831 C6.083,12.831 6.602,13.045 6.994,13.433 C7.386,13.827 7.602,14.346 7.602,14.900 C7.604,15.740 7.103,16.493 6.325,16.817 C6.067,16.925 5.795,16.978 5.526,16.978 C4.990,16.978 4.463,16.768 4.065,16.371 C3.468,15.777 3.291,14.891 3.612,14.111 C3.934,13.334 4.686,12.831 5.527,12.831 ZM4.901,15.533 C5.157,15.787 5.538,15.862 5.870,15.724 C6.203,15.585 6.418,15.261 6.417,14.901 C6.417,14.664 6.324,14.441 6.157,14.272 C5.991,14.107 5.768,14.015 5.533,14.015 C5.530,14.015 5.529,14.015 5.529,14.015 C5.167,14.015 4.845,14.230 4.707,14.564 C4.570,14.897 4.645,15.279 4.901,15.533 ZM13.918,12.831 C14.464,12.791 14.998,13.049 15.386,13.434 C15.778,13.827 15.993,14.346 15.993,14.900 C15.996,15.739 15.496,16.493 14.719,16.817 C14.459,16.925 14.187,16.976 13.918,16.978 C13.381,16.978 12.854,16.768 12.457,16.371 C11.860,15.776 11.683,14.891 12.005,14.111 C12.326,13.334 13.077,12.831 13.918,12.831 ZM13.293,15.533 C13.549,15.788 13.931,15.862 14.263,15.724 C14.595,15.585 14.810,15.261 14.809,14.901 C14.809,14.664 14.717,14.441 14.549,14.272 C14.384,14.109 14.157,14.015 13.924,14.015 C13.923,14.015 13.923,14.015 13.923,14.015 C13.592,14.047 13.238,14.230 13.100,14.563 C12.961,14.897 13.037,15.279 13.293,15.533 Z" />

  </symbol>

  <symbol id="dots__icon">
    <path d="M17.883,12.750 C16.696,12.750 15.737,11.790 15.737,10.603 C15.737,9.417 16.696,8.458 17.883,8.458 C19.070,8.458 20.029,9.417 20.029,10.603 C20.029,11.790 19.070,12.750 17.883,12.750 ZM17.883,4.881 C16.696,4.881 15.737,3.921 15.737,2.735 C15.737,1.548 16.696,0.589 17.883,0.589 C19.070,0.589 20.029,1.548 20.029,2.735 C20.029,3.921 19.070,4.881 17.883,4.881 ZM10.014,20.618 C8.828,20.618 7.868,19.659 7.868,18.472 C7.868,17.285 8.828,16.326 10.014,16.326 C11.201,16.326 12.160,17.285 12.160,18.472 C12.160,19.659 11.201,20.618 10.014,20.618 ZM10.014,12.750 C8.828,12.750 7.868,11.790 7.868,10.603 C7.868,9.417 8.828,8.458 10.014,8.458 C11.201,8.458 12.160,9.417 12.160,10.603 C12.160,11.790 11.201,12.750 10.014,12.750 ZM10.014,4.881 C8.828,4.881 7.868,3.921 7.868,2.735 C7.868,1.548 8.828,0.589 10.014,0.589 C11.201,0.589 12.160,1.548 12.160,2.735 C12.160,3.921 11.201,4.881 10.014,4.881 ZM2.146,20.618 C0.959,20.618 -0.000,19.659 -0.000,18.472 C-0.000,17.285 0.959,16.326 2.146,16.326 C3.333,16.326 4.292,17.285 4.292,18.472 C4.292,19.659 3.333,20.618 2.146,20.618 ZM2.146,12.750 C0.959,12.750 -0.000,11.790 -0.000,10.603 C-0.000,9.417 0.959,8.458 2.146,8.458 C3.333,8.458 4.292,9.417 4.292,10.603 C4.292,11.790 3.333,12.750 2.146,12.750 ZM2.146,4.881 C0.959,4.881 -0.000,3.921 -0.000,2.735 C-0.000,1.548 0.959,0.589 2.146,0.589 C3.333,0.589 4.292,1.548 4.292,2.735 C4.292,3.921 3.333,4.881 2.146,4.881 ZM17.883,16.326 C19.070,16.326 20.029,17.285 20.029,18.472 C20.029,19.659 19.070,20.618 17.883,20.618 C16.696,20.618 15.737,19.659 15.737,18.472 C15.737,17.285 16.696,16.326 17.883,16.326 Z" />

  </symbol>

  <symbol id="arrow__white">
    <path d="M0.296,5.472 L0.288,5.472 L17.244,5.472 L17.144,8.329 C17.089,8.383 17.060,8.456 17.060,8.534 C17.060,8.611 17.089,8.685 17.144,8.739 L17.316,8.911 C17.370,8.967 17.442,8.997 17.520,8.997 C17.597,8.997 17.669,8.967 17.723,8.913 L21.916,4.702 C21.970,4.647 22.000,4.574 22.000,4.496 C22.000,4.419 21.970,4.346 21.916,4.293 L17.723,0.080 C17.669,0.027 17.597,-0.004 17.520,-0.004 C17.442,-0.004 17.370,0.027 17.316,0.080 L17.144,0.253 C17.089,0.309 17.060,0.380 17.060,0.457 C17.060,0.534 17.089,0.603 17.144,0.658 L17.257,3.523 L0.292,3.523 C0.133,3.523 -0.000,3.658 -0.000,3.818 L-0.000,5.188 C-0.000,5.347 0.137,5.472 0.296,5.472 Z" />
  </symbol>

  <symbol id="play__video">
    <path d="M20.684,14.740 L4.640,24.536 C4.139,24.842 3.559,24.997 2.977,24.997 C2.498,24.997 2.017,24.891 1.578,24.680 C0.606,24.210 -0.001,23.293 -0.001,22.295 L-0.001,2.700 C-0.001,1.701 0.606,0.783 1.578,0.314 C2.549,-0.155 3.727,-0.100 4.640,0.457 L20.684,10.255 C21.506,10.757 21.999,11.598 21.999,12.496 C21.999,13.396 21.506,14.237 20.684,14.740 Z"/>
  </symbol>

  <symbol id="view__arrow">
    <path fill="rgb(38, 38, 38)" d="M1.333,11.687 C1.184,11.687 1.034,11.626 0.922,11.504 C0.819,11.390 0.767,11.245 0.767,11.100 C0.767,10.943 0.826,10.789 0.944,10.673 L5.491,6.198 L0.944,1.724 C0.826,1.609 0.767,1.453 0.767,1.297 C0.767,1.152 0.819,1.007 0.922,0.893 C1.138,0.657 1.496,0.647 1.723,0.870 L6.700,5.768 C6.705,5.772 6.709,5.777 6.714,5.782 C6.762,5.831 6.801,5.889 6.827,5.951 L6.827,5.951 C6.828,5.951 6.828,5.951 6.828,5.951 C6.862,6.029 6.880,6.112 6.880,6.195 C6.880,6.196 6.880,6.197 6.880,6.198 C6.880,6.284 6.862,6.369 6.827,6.447 L6.827,6.447 C6.827,6.448 6.826,6.448 6.826,6.448 C6.826,6.449 6.826,6.449 6.826,6.449 C6.826,6.449 6.826,6.449 6.826,6.450 C6.799,6.509 6.762,6.565 6.715,6.614 C6.710,6.619 6.705,6.623 6.700,6.628 L1.723,11.527 C1.614,11.635 1.473,11.687 1.333,11.687 Z"/>

  </symbol>

  <symbol id="calendar__icon" viewBox="0 0 448 512">
    <path d="M148 288h-40c-6.6 0-12-5.4-12-12v-40c0-6.6 5.4-12 12-12h40c6.6 0 12 5.4 12 12v40c0 6.6-5.4 12-12 12zm108-12v-40c0-6.6-5.4-12-12-12h-40c-6.6 0-12 5.4-12 12v40c0 6.6 5.4 12 12 12h40c6.6 0 12-5.4 12-12zm96 0v-40c0-6.6-5.4-12-12-12h-40c-6.6 0-12 5.4-12 12v40c0 6.6 5.4 12 12 12h40c6.6 0 12-5.4 12-12zm-96 96v-40c0-6.6-5.4-12-12-12h-40c-6.6 0-12 5.4-12 12v40c0 6.6 5.4 12 12 12h40c6.6 0 12-5.4 12-12zm-96 0v-40c0-6.6-5.4-12-12-12h-40c-6.6 0-12 5.4-12 12v40c0 6.6 5.4 12 12 12h40c6.6 0 12-5.4 12-12zm192 0v-40c0-6.6-5.4-12-12-12h-40c-6.6 0-12 5.4-12 12v40c0 6.6 5.4 12 12 12h40c6.6 0 12-5.4 12-12zm96-260v352c0 26.5-21.5 48-48 48H48c-26.5 0-48-21.5-48-48V112c0-26.5 21.5-48 48-48h48V12c0-6.6 5.4-12 12-12h40c6.6 0 12 5.4 12 12v52h128V12c0-6.6 5.4-12 12-12h40c6.6 0 12 5.4 12 12v52h48c26.5 0 48 21.5 48 48zm-48 346V160H48v298c0 3.3 2.7 6 6 6h340c3.3 0 6-2.7 6-6z"></path>
  </symbol>


  <symbol id="user__icon">
    <path d="M8.5 9.32018C9.51667 9.32018 10.65 9.47758 11.9 9.7924C13.3 10.1404 14.4333 10.6043 15.3 11.1842C16.3333 11.8801 17 12.1784 17 13.0234V17H0V13.0234C0 12.1784 0.666661 11.8801 1.7 11.1842C2.56667 10.6043 3.69999 10.1404 5.1 9.7924C6.35001 9.47758 7.48333 9.32018 8.5 9.32018ZM8.5 0C9.25 0 9.94166 0.186402 10.575 0.55921C11.2083 0.932019 11.7125 1.44152 12.0875 2.08772C12.4625 2.73392 12.65 3.42982 12.65 4.17544C12.65 4.92106 12.4625 5.60867 12.0875 6.2383C11.7125 6.86794 11.2083 7.36915 10.575 7.74196C9.94166 8.11477 9.25 8.30117 8.5 8.30117C7.75 8.30117 7.05834 8.11477 6.425 7.74196C5.79166 7.36915 5.2875 6.86794 4.9125 6.2383C4.5375 5.60867 4.35 4.92106 4.35 4.17544C4.35 3.42982 4.5375 2.73392 4.9125 2.08772C5.2875 1.44152 5.79166 0.932019 6.425 0.55921C7.05834 0.186402 7.75 0 8.5 0ZM8.5 11.3085C7.55 11.3085 6.54167 11.4493 5.475 11.731C4.55833 11.9795 3.775 12.2778 3.125 12.6257C2.475 12.9737 2 13.7856 2 14.0175V15.0117H15V14.0175C15 13.7856 14.525 12.9737 13.875 12.6257C13.225 12.2778 12.4417 11.9795 11.525 11.731C10.4583 11.4493 9.45 11.3085 8.5 11.3085ZM8.5 1.9883C7.88333 1.9883 7.3625 2.19956 6.9375 2.62208C6.5125 3.04459 6.3 3.56238 6.3 4.17544C6.3 4.7885 6.5125 5.298 6.9375 5.70395C7.3625 6.10989 7.88333 6.31287 8.5 6.31287C9.11667 6.31287 9.6375 6.10989 10.0625 5.70395C10.4875 5.298 10.7 4.7885 10.7 4.17544C10.7 3.56238 10.4875 3.04459 10.0625 2.62208C9.6375 2.19956 9.11667 1.9883 8.5 1.9883Z" />

  </symbol>

  <symbol id="arrow__team">
    <path fill="rgb(255, 255, 255)" d="M8.931,11.007 C9.084,11.007 9.236,10.955 9.356,10.846 L14.790,5.934 C14.797,5.929 14.803,5.923 14.809,5.917 C14.820,5.906 14.830,5.896 14.840,5.885 L14.840,5.884 L14.841,5.884 C14.930,5.784 14.977,5.663 14.985,5.540 C14.988,5.496 14.986,5.453 14.979,5.410 C14.961,5.299 14.908,5.192 14.824,5.103 C14.813,5.092 14.802,5.082 14.791,5.072 L9.356,0.160 C9.109,-0.064 8.717,-0.055 8.482,0.182 C8.247,0.419 8.258,0.792 8.506,1.016 L12.817,4.913 L0.631,4.913 C0.290,4.913 0.014,5.177 0.014,5.503 C0.014,5.828 0.290,6.092 0.631,6.092 L12.817,6.092 L8.506,9.990 C8.258,10.213 8.247,10.587 8.482,10.824 C8.604,10.946 8.767,11.007 8.931,11.007 Z" />

  </symbol>

  <symbol id="instagram">
    <path d="M16.908,13.563 C16.375,15.523 15.095,16.683 13.111,17.002 C12.369,17.121 10.366,17.193 8.367,17.193 C6.320,17.193 4.276,17.118 3.588,16.939 C1.638,16.435 0.474,15.165 0.164,13.190 C-0.067,11.739 -0.091,4.999 0.328,3.536 C0.874,1.630 2.147,0.510 4.075,0.193 C4.949,0.050 6.658,-0.001 8.385,-0.001 C9.990,-0.001 11.609,0.043 12.584,0.097 C13.764,0.159 14.845,0.539 15.723,1.381 C16.559,2.182 16.987,3.183 17.095,4.316 C17.223,5.669 17.306,12.064 16.908,13.563 ZM15.547,4.461 C15.393,2.948 14.468,1.954 12.972,1.719 C12.231,1.607 10.447,1.557 8.672,1.557 C6.960,1.557 5.256,1.604 4.506,1.685 C3.006,1.857 1.998,2.783 1.759,4.275 C1.512,5.855 1.514,11.767 1.699,12.955 C1.890,14.191 2.588,15.040 3.821,15.385 C4.489,15.573 6.487,15.639 8.447,15.639 C10.250,15.639 12.022,15.583 12.687,15.510 C14.201,15.344 15.202,14.412 15.441,12.907 C15.688,11.394 15.688,5.877 15.547,4.461 ZM13.209,5.055 C12.636,5.048 12.184,4.585 12.188,4.019 C12.192,3.450 12.651,2.990 13.219,2.990 L13.231,2.990 C13.798,2.990 14.257,3.453 14.252,4.026 C14.248,4.592 13.782,5.055 13.209,5.055 ZM8.563,13.010 C6.125,13.010 4.172,11.035 4.191,8.597 C4.210,6.160 6.200,4.184 8.637,4.191 C11.068,4.191 13.028,6.167 13.009,8.604 C12.991,11.035 11.000,13.010 8.563,13.010 ZM8.646,5.745 L8.620,5.745 C7.057,5.745 5.771,7.004 5.744,8.570 C5.719,10.144 6.973,11.436 8.547,11.449 L8.573,11.449 C10.135,11.449 11.423,10.191 11.449,8.625 C11.474,7.043 10.220,5.759 8.646,5.745 Z"/>
  </symbol>

  <symbol id="google__plus">
    <path d="M22.691,5.835 L22.691,5.904 L22.677,7.720 L22.676,7.796 L22.601,7.796 L20.170,7.796 L20.152,10.227 L20.151,10.296 L20.082,10.296 L18.259,10.296 L18.190,10.296 L18.190,10.227 L18.209,7.796 L15.778,7.796 L15.702,7.796 L15.703,7.720 L15.717,5.904 L15.717,5.835 L15.793,5.835 L18.224,5.835 L18.242,3.397 L18.243,3.328 L18.312,3.328 L20.135,3.328 L20.204,3.328 L20.203,3.397 L20.185,5.835 L22.616,5.835 L22.691,5.835 ZM9.107,14.115 C8.469,14.280 7.821,14.361 7.168,14.361 C7.029,14.361 6.890,14.357 6.751,14.350 C5.342,14.267 4.062,13.825 2.928,12.989 C1.466,11.912 0.545,10.475 0.158,8.701 C0.017,8.058 -0.033,7.416 0.020,6.767 C0.122,5.234 0.657,3.860 1.640,2.665 C2.658,1.415 3.955,0.600 5.505,0.207 C5.899,0.103 6.294,0.041 6.695,0.021 C6.922,0.013 7.150,-0.000 7.378,-0.000 C8.593,0.013 9.731,0.318 10.776,0.932 C11.477,1.333 11.874,1.740 12.045,1.864 C11.329,2.569 10.641,3.259 9.938,3.950 C9.416,3.500 8.839,3.087 7.839,2.934 C7.632,2.905 7.427,2.890 7.226,2.890 C5.219,2.890 3.538,4.341 3.090,6.243 C2.983,6.670 2.953,7.106 2.990,7.541 C3.143,9.309 4.326,10.759 5.925,11.277 C6.332,11.405 6.754,11.466 7.179,11.466 C7.278,11.466 7.377,11.463 7.477,11.457 C8.230,11.408 8.935,11.208 9.575,10.786 C10.650,10.054 10.998,8.908 11.000,8.625 L7.154,8.625 C7.154,8.530 7.168,6.733 7.175,5.855 L7.182,5.738 L13.936,5.738 C14.300,7.845 13.972,10.061 12.661,11.794 C11.754,12.989 10.547,13.742 9.107,14.115 Z"/>
  </symbol>

  <symbol id="grid__icon">
    <path d="M-0.000,3.750 L3.750,3.750 L3.750,-0.000 L-0.000,-0.000 L-0.000,3.750 ZM5.625,15.000 L9.375,15.000 L9.375,11.250 L5.625,11.250 L5.625,15.000 ZM-0.000,15.000 L3.750,15.000 L3.750,11.250 L-0.000,11.250 L-0.000,15.000 ZM-0.000,9.375 L3.750,9.375 L3.750,5.625 L-0.000,5.625 L-0.000,9.375 ZM5.625,9.375 L9.375,9.375 L9.375,5.625 L5.625,5.625 L5.625,9.375 ZM11.250,-0.000 L11.250,3.750 L15.000,3.750 L15.000,-0.000 L11.250,-0.000 ZM5.625,3.750 L9.375,3.750 L9.375,-0.000 L5.625,-0.000 L5.625,3.750 ZM11.250,9.375 L15.000,9.375 L15.000,5.625 L11.250,5.625 L11.250,9.375 ZM11.250,15.000 L15.000,15.000 L15.000,11.250 L11.250,11.250 L11.250,15.000 Z"></path>
  </symbol>
  <symbol id="list__icon">
    <path d="M5.835,14.998 L5.835,10.827 L19.994,10.827 L19.994,14.998 L5.835,14.998 ZM5.835,5.413 L19.994,5.413 L19.994,9.585 L5.835,9.585 L5.835,5.413 ZM5.835,0.000 L19.994,0.000 L19.994,4.172 L5.835,4.172 L5.835,0.000 ZM0.007,10.827 L4.429,10.827 L4.429,14.998 L0.007,14.998 L0.007,10.827 ZM0.007,5.413 L4.429,5.413 L4.429,9.585 L0.007,9.585 L0.007,5.413 ZM0.007,0.000 L4.429,0.000 L4.429,4.172 L0.007,4.172 L0.007,0.000 Z"></path>
  </symbol>
  <symbol id="blog-search__icon">
    <path fill="#174a7c" d="M17.249,17.920 C17.098,17.920 16.946,17.862 16.830,17.746 L11.531,12.448 C10.398,13.393 8.941,13.962 7.353,13.962 C3.752,13.962 0.822,11.032 0.822,7.431 C0.822,3.829 3.752,0.899 7.353,0.899 C10.955,0.899 13.884,3.829 13.884,7.431 C13.884,9.018 13.316,10.475 12.371,11.609 L17.669,16.907 C17.785,17.023 17.843,17.175 17.843,17.327 C17.843,17.478 17.785,17.630 17.669,17.746 C17.553,17.862 17.401,17.920 17.249,17.920 ZM7.353,2.087 C4.407,2.087 2.010,4.484 2.010,7.431 C2.010,10.377 4.407,12.775 7.353,12.775 C10.300,12.775 12.698,10.377 12.698,7.431 C12.698,4.484 10.300,2.087 7.353,2.087 Z"/>
  </symbol>

  <symbol id="facebook">
    <path d="M6.190,0.125 C6.603,0.125 7.018,0.147 7.430,0.165 C7.698,0.176 7.967,0.215 8.219,0.242 L8.200,2.727 L8.002,2.727 C7.730,2.727 7.457,2.724 7.184,2.724 C6.980,2.724 6.775,2.725 6.571,2.732 C5.912,2.754 5.427,3.001 5.394,3.824 C5.373,4.416 5.358,5.725 5.357,5.793 C5.391,5.793 6.042,5.795 6.697,5.795 C7.024,5.795 7.344,5.795 7.568,5.793 L8.099,5.793 C7.966,6.748 7.844,7.663 7.711,8.585 L5.357,8.585 L5.304,15.556 L2.414,15.556 L2.467,8.574 L0.103,8.574 L0.124,5.798 L2.499,5.798 L2.501,5.590 C2.505,5.031 2.498,4.471 2.519,3.912 C2.527,3.561 2.546,3.199 2.610,2.847 C2.770,1.998 3.164,1.284 3.876,0.774 C4.499,0.330 5.208,0.143 5.960,0.127 C6.036,0.125 6.113,0.125 6.190,0.125 Z"/>
  </symbol>
  <symbol id="twitter">
    <path d="M14.690,2.277 C14.585,2.436 14.480,2.584 14.358,2.727 C14.047,3.111 13.688,3.451 13.286,3.742 L13.236,3.835 C13.249,4.268 13.229,4.702 13.171,5.135 C13.054,6.045 12.790,6.917 12.399,7.746 C11.987,8.601 11.460,9.375 10.797,10.055 C9.669,11.212 8.319,11.959 6.748,12.304 C6.209,12.419 5.666,12.480 5.112,12.496 C5.023,12.498 4.935,12.500 4.847,12.500 C3.259,12.500 1.787,12.076 0.431,11.234 L0.361,11.191 C0.593,11.215 0.822,11.228 1.050,11.228 C1.825,11.228 2.570,11.083 3.298,10.790 C3.799,10.582 4.262,10.318 4.698,9.973 C3.179,9.924 2.233,8.826 1.987,7.938 C2.169,7.973 2.351,7.990 2.532,7.990 C2.769,7.990 3.006,7.961 3.244,7.905 L3.288,7.883 C2.461,7.691 1.828,7.252 1.394,6.539 C1.102,6.067 0.969,5.546 0.973,4.981 C1.388,5.201 1.815,5.321 2.276,5.332 C1.659,4.888 1.247,4.301 1.083,3.555 C0.918,2.809 1.033,2.101 1.417,1.432 C2.988,3.303 4.988,4.329 7.438,4.498 C7.423,4.378 7.407,4.279 7.391,4.175 C7.314,3.484 7.462,2.842 7.839,2.261 C8.311,1.526 8.978,1.070 9.835,0.933 C10.017,0.903 10.195,0.888 10.368,0.888 C11.136,0.888 11.814,1.182 12.396,1.751 C12.432,1.783 12.463,1.801 12.504,1.801 C12.517,1.801 12.532,1.799 12.549,1.794 C13.153,1.668 13.726,1.449 14.260,1.142 L14.298,1.120 C14.085,1.800 13.658,2.326 13.052,2.716 C13.623,2.656 14.162,2.502 14.690,2.277 Z"/>
  </symbol>

  <symbol id="map_point">
    <path d="M30.525,43.047 C30.035,43.547 29.303,43.687 28.662,43.402 L22.997,40.892 L16.403,43.809 C16.116,43.937 15.808,44.000 15.500,44.000 C15.191,44.000 14.883,43.937 14.597,43.809 L8.013,40.892 L2.339,43.402 C1.697,43.687 0.965,43.547 0.475,43.047 C-0.015,42.547 -0.138,41.817 0.162,41.185 L5.156,30.669 C5.262,30.446 5.439,30.266 5.661,30.156 C6.205,29.885 6.869,30.104 7.142,30.647 C7.307,30.978 7.290,31.353 7.128,31.656 L2.785,40.800 L7.105,38.886 C7.679,38.631 8.338,38.632 8.911,38.887 L15.494,41.803 C15.494,41.803 15.501,41.803 15.504,41.803 C15.505,41.803 15.505,41.803 15.505,41.803 L22.090,38.886 C22.661,38.631 23.319,38.631 23.894,38.886 L28.214,40.800 L23.872,31.655 C23.653,31.248 23.709,30.731 24.046,30.380 C24.431,29.978 25.047,29.930 25.487,30.244 C25.638,30.352 25.762,30.497 25.844,30.668 L30.838,41.186 C31.137,41.817 31.015,42.546 30.525,43.047 ZM27.897,20.283 L18.349,36.210 C17.745,37.219 16.680,37.821 15.500,37.821 C14.320,37.821 13.254,37.219 12.650,36.210 L3.102,20.283 C3.091,20.263 3.079,20.242 3.069,20.221 C2.056,18.253 1.527,16.037 1.540,13.810 C1.563,10.168 3.004,6.727 5.601,4.121 C8.197,1.515 11.643,0.052 15.302,0.001 C19.069,-0.051 22.621,1.370 25.301,4.002 C27.982,6.633 29.459,10.146 29.459,13.894 C29.459,16.123 28.945,18.251 27.931,20.221 C27.920,20.242 27.908,20.263 27.897,20.283 ZM23.752,5.564 C21.537,3.390 18.613,2.196 15.505,2.196 C15.448,2.196 15.390,2.197 15.333,2.198 C8.982,2.285 3.785,7.501 3.747,13.823 C3.735,15.714 4.163,17.519 5.016,19.189 L14.545,35.085 C14.837,35.572 15.310,35.625 15.500,35.625 C15.690,35.625 16.163,35.572 16.455,35.085 L25.983,19.189 C26.826,17.540 27.253,15.759 27.253,13.894 C27.253,10.739 26.009,7.781 23.752,5.564 ZM15.500,18.921 C12.715,18.921 10.449,16.667 10.449,13.894 C10.449,11.122 12.715,8.868 15.500,8.868 C18.285,8.868 20.551,11.122 20.551,13.894 C20.551,16.667 18.285,18.921 15.500,18.921 ZM15.500,11.064 C13.932,11.064 12.655,12.334 12.655,13.894 C12.655,15.456 13.932,16.726 15.500,16.726 C17.069,16.726 18.344,15.456 18.344,13.894 C18.344,12.334 17.069,11.064 15.500,11.064 Z"/>
  </symbol>
  <symbol id="mail">
    <path d="M36.053,34.870 L0.976,34.918 L0.975,34.918 C0.724,34.918 0.484,34.820 0.306,34.646 C0.128,34.472 0.028,34.234 0.028,33.987 L-0.000,13.786 C-0.000,13.780 0.001,13.775 0.001,13.769 C0.005,13.478 0.147,13.194 0.409,13.015 L5.731,9.399 L5.731,5.561 C5.731,5.047 6.155,4.629 6.679,4.629 L12.746,4.629 L17.963,1.083 C18.288,0.862 18.718,0.863 19.042,1.084 L24.227,4.629 L30.320,4.629 C30.843,4.629 31.267,5.047 31.267,5.561 L31.267,9.443 L36.564,13.064 C36.753,13.194 36.880,13.379 36.937,13.583 C36.958,13.629 36.971,13.712 36.971,13.767 L36.999,33.937 C37.000,34.450 36.576,34.869 36.053,34.870 ZM33.226,33.010 L18.514,21.786 L3.748,33.051 L33.226,33.010 ZM5.731,11.662 L2.613,13.782 L5.731,15.903 L5.731,11.662 ZM1.897,15.563 L1.920,32.086 L13.363,23.356 L1.897,15.563 ZM18.500,2.984 L16.079,4.629 L20.907,4.629 L18.500,2.984 ZM29.372,6.493 L7.626,6.493 L7.626,17.190 L14.934,22.158 L17.933,19.870 C18.278,19.607 18.749,19.616 19.081,19.862 C19.086,19.865 19.090,19.867 19.094,19.870 L22.071,22.142 L29.372,17.149 L29.372,6.493 ZM31.267,11.713 L31.267,15.854 L34.295,13.783 L31.267,11.713 ZM35.078,15.517 L23.640,23.338 L35.101,32.082 L35.078,15.517 ZM11.137,15.999 C11.137,15.485 11.561,15.067 12.085,15.067 L24.915,15.067 C25.437,15.067 25.861,15.485 25.861,15.999 C25.861,16.514 25.437,16.932 24.915,16.932 L12.085,16.932 C11.561,16.932 11.137,16.514 11.137,15.999 ZM24.915,12.085 L12.085,12.085 C11.561,12.085 11.137,11.667 11.137,11.153 C11.137,10.639 11.561,10.221 12.085,10.221 L24.915,10.221 C25.437,10.221 25.861,10.639 25.861,11.153 C25.861,11.667 25.437,12.085 24.915,12.085 Z"/>
  </symbol>
  <symbol id="phone">
    <path d="M31.941,22.244 C29.151,22.244 26.881,20.004 26.881,17.249 C26.881,14.495 29.151,12.254 31.941,12.254 C34.730,12.254 37.000,14.495 37.000,17.249 C37.000,20.004 34.730,22.244 31.941,22.244 ZM31.941,14.204 C30.240,14.204 28.857,15.570 28.857,17.249 C28.857,18.929 30.240,20.294 31.941,20.294 C33.641,20.294 35.025,18.929 35.025,17.249 C35.025,15.570 33.641,14.204 31.941,14.204 ZM31.941,10.908 C29.151,10.908 26.881,8.667 26.881,5.913 C26.881,3.158 29.151,0.918 31.941,0.918 C34.730,0.918 37.000,3.158 37.000,5.913 C37.000,8.667 34.730,10.908 31.941,10.908 ZM31.941,2.867 C30.240,2.867 28.857,4.234 28.857,5.913 C28.857,7.592 30.240,8.959 31.941,8.959 C33.641,8.959 35.025,7.592 35.025,5.913 C35.025,4.234 33.641,2.867 31.941,2.867 ZM18.499,44.917 C15.710,44.917 13.440,42.676 13.440,39.922 C13.440,37.168 15.710,34.927 18.499,34.927 C21.289,34.927 23.559,37.168 23.559,39.922 C23.559,42.677 21.289,44.917 18.499,44.917 ZM18.499,36.877 C16.799,36.877 15.415,38.243 15.415,39.922 C15.415,41.601 16.799,42.967 18.499,42.967 C20.200,42.967 21.585,41.601 21.585,39.922 C21.585,38.243 20.200,36.877 18.499,36.877 ZM18.499,33.581 C15.710,33.581 13.440,31.340 13.440,28.586 C13.440,25.831 15.710,23.591 18.499,23.591 C21.289,23.591 23.559,25.831 23.559,28.586 C23.559,31.340 21.289,33.581 18.499,33.581 ZM18.499,25.540 C16.799,25.540 15.415,26.907 15.415,28.586 C15.415,30.265 16.799,31.632 18.499,31.632 C20.200,31.632 21.585,30.265 21.585,28.586 C21.585,26.907 20.200,25.540 18.499,25.540 ZM18.499,22.244 C15.710,22.244 13.440,20.004 13.440,17.249 C13.440,14.495 15.710,12.254 18.499,12.254 C21.289,12.254 23.559,14.495 23.559,17.249 C23.559,20.004 21.289,22.244 18.499,22.244 ZM18.499,14.204 C16.799,14.204 15.415,15.570 15.415,17.249 C15.415,18.929 16.799,20.294 18.499,20.294 C20.200,20.294 21.585,18.929 21.585,17.249 C21.585,15.570 20.200,14.204 18.499,14.204 ZM18.499,10.908 C15.710,10.908 13.440,8.667 13.440,5.913 C13.440,3.158 15.710,0.918 18.499,0.918 C21.289,0.918 23.559,3.158 23.559,5.913 C23.559,8.667 21.289,10.908 18.499,10.908 ZM18.499,2.867 C16.799,2.867 15.415,4.234 15.415,5.913 C15.415,7.592 16.799,8.959 18.499,8.959 C20.200,8.959 21.585,7.592 21.585,5.913 C21.585,4.234 20.200,2.867 18.499,2.867 ZM5.059,33.581 C2.269,33.581 -0.000,31.340 -0.000,28.586 C-0.000,25.831 2.269,23.591 5.059,23.591 C7.849,23.591 10.118,25.831 10.118,28.586 C10.118,31.340 7.849,33.581 5.059,33.581 ZM5.059,25.540 C3.358,25.540 1.974,26.907 1.974,28.586 C1.974,30.265 3.358,31.632 5.059,31.632 C6.760,31.632 8.143,30.265 8.143,28.586 C8.143,26.907 6.760,25.540 5.059,25.540 ZM5.059,22.244 C2.269,22.244 -0.000,20.004 -0.000,17.249 C-0.000,14.495 2.269,12.254 5.059,12.254 C7.849,12.254 10.118,14.495 10.118,17.249 C10.118,20.004 7.849,22.244 5.059,22.244 ZM5.059,14.204 C3.358,14.204 1.974,15.570 1.974,17.249 C1.974,18.929 3.358,20.294 5.059,20.294 C6.760,20.294 8.143,18.929 8.143,17.249 C8.143,15.570 6.760,14.204 5.059,14.204 ZM5.059,10.908 C2.269,10.908 -0.000,8.667 -0.000,5.913 C-0.000,3.158 2.269,0.918 5.059,0.918 C7.849,0.918 10.118,3.158 10.118,5.913 C10.118,8.667 7.849,10.908 5.059,10.908 ZM5.059,2.867 C3.358,2.867 1.974,4.234 1.974,5.913 C1.974,7.592 3.358,8.959 5.059,8.959 C6.760,8.959 8.143,7.592 8.143,5.913 C8.143,4.234 6.760,2.867 5.059,2.867 ZM31.941,23.591 C34.730,23.591 37.000,25.831 37.000,28.586 C37.000,31.340 34.730,33.581 31.941,33.581 C29.151,33.581 26.881,31.340 26.881,28.586 C26.881,25.831 29.151,23.591 31.941,23.591 ZM31.941,31.632 C33.641,31.632 35.025,30.265 35.025,28.586 C35.025,26.907 33.641,25.540 31.941,25.540 C30.240,25.540 28.857,26.907 28.857,28.586 C28.857,30.265 30.240,31.632 31.941,31.632 Z"/>
  </symbol>
</svg>